<svg xmlns="http://www.w3.org/2000/svg" xmlns:xlink="http://www.w3.org/1999/xlink" viewBox="0 0 1929.32 1903.68"><defs><style>.cls-1{fill:none;}.cls-2{fill:url(#linear-gradient);}.cls-3{clip-path:url(#clip-path);}.cls-4{fill:#fff;}</style><linearGradient id="linear-gradient" x1="333.1" y1="886.61" x2="1603.59" y2="886.61" gradientUnits="userSpaceOnUse"><stop offset="0" stop-color="#fe37a1"/><stop offset="0.25" stop-color="#c531d8"/><stop offset="0.5" stop-color="#8c41fe"/><stop offset="0.75" stop-color="#669cfe"/><stop offset="1" stop-color="#0bffec"/></linearGradient><clipPath id="clip-path"><path class="cls-1" d="M944.75,864.42A159.14,159.14,0,1,1,785.61,705.27,159.14,159.14,0,0,1,944.75,864.42Z"/></clipPath></defs><g id="Capa_1" data-name="Capa 1"><circle cx="968.34" cy="953.32" r="805.06"/><path class="cls-2" d="M1501.82,902.93c.23-3.9.38-7.83.38-11.79,0-108.28-87.78-196.06-196.06-196.06a196,196,0,0,0-59,9c0-.69,0-1.36,0-2,0-134-108.64-242.65-242.65-242.65-106.8,0-197.41,69-229.84,164.89a186.86,186.86,0,0,0-96.44-26.65c-103.74,0-187.84,84.1-187.84,187.85a188.82,188.82,0,0,0,3.28,34.86c-90.85,13.18-160.64,91.36-160.64,185.86,0,103.74,84.1,187.84,187.84,187.84H935.2c-24.63-35.13-39.7-74.71-46.69-118.27-4.24-26.42-1.86-52.91-2.52-79.37-.14-5.73.07-11.47.09-17.21q.17-51.87.31-103.73.29-80.25.62-160.49.12-27.91.32-55.82c0-1.21.14-2.43.24-4.15h117.76V845.79h96.27V956.15h-93.91v6c0,27.14-.1,54.28,0,81.42.06,11.13-.26,22.37,1.14,33.37,5.69,44.36,37.21,73.47,81.87,76.39,4.17.27,8.33.6,12.8.93v39.86h86l254.32,119.19a5.54,5.54,0,0,0,7.44-7.2l-48-112h50.8a149.48,149.48,0,0,0,47.71-291.14Z"/><g class="cls-3"><rect class="cls-4" x="390.62" y="731.21" width="529.38" height="5.8" transform="translate(-327.16 678.39) rotate(-45)"/><rect class="cls-4" x="414.31" y="754.91" width="529.36" height="5.8" transform="translate(-336.98 702.08) rotate(-45)"/><rect class="cls-4" x="343.24" y="683.83" width="529.37" height="5.8" transform="translate(-307.53 631) rotate(-45)"/><rect class="cls-4" x="366.93" y="707.52" width="529.37" height="5.8" transform="translate(-317.35 654.69) rotate(-45)"/><rect class="cls-4" x="485.39" y="825.98" width="529.36" height="5.8" transform="translate(-366.42 773.15) rotate(-45)"/><rect class="cls-4" x="509.08" y="849.67" width="529.36" height="5.8" transform="translate(-376.23 796.84) rotate(-45)"/><rect class="cls-4" x="438.01" y="778.6" width="529.36" height="5.8" transform="translate(-346.79 725.77) rotate(-45)"/><rect class="cls-4" x="461.69" y="802.29" width="529.37" height="5.8" transform="translate(-356.6 749.38) rotate(-45)"/><rect class="cls-4" x="580.15" y="920.75" width="529.36" height="5.8" transform="translate(-405.67 868) rotate(-45)"/><rect class="cls-4" x="603.85" y="944.42" width="529.36" height="5.8" transform="translate(-415.47 891.61) rotate(-45)"/><rect class="cls-4" x="532.77" y="873.36" width="529.36" height="5.8" transform="translate(-386.04 820.54) rotate(-45)"/><rect class="cls-4" x="556.45" y="897.05" width="529.36" height="5.8" transform="translate(-395.85 844.13) rotate(-45)"/><rect class="cls-4" x="674.91" y="1015.5" width="529.36" height="5.8" transform="translate(-444.92 962.77) rotate(-45)"/><rect class="cls-4" x="698.61" y="1039.2" width="529.36" height="5.8" transform="translate(-454.73 986.47) rotate(-45)"/><rect class="cls-4" x="627.53" y="968.12" width="529.36" height="5.8" transform="translate(-425.29 915.3) rotate(-45)"/><rect class="cls-4" x="651.22" y="991.81" width="529.36" height="5.8" transform="translate(-435.11 938.98) rotate(-45)"/></g></g></svg>